<svg xmlns="http://www.w3.org/2000/svg" viewBox="0 0 200 200"><g id="Capa_6" data-name="Capa 6"><path d="M83.78,94.36S99.7,93.18,99.7,74.5s-13-27.78-29.53-27.78H15.87V151.07h54.3s33.15,1.05,33.15-30.8C103.32,120.27,104.76,94.36,83.78,94.36Zm-44-29.1H70.17s7.38,0,7.38,10.86-4.34,12.43-9.26,12.43H39.79Zm29,67.26h-29V104.64H70.17s11-.15,11,14.33C81.17,131,73.12,132.4,68.77,132.52Z"/><path d="M147.53,73.27c-40.13,0-40.1,40.09-40.1,40.09s-2.75,39.89,40.1,39.89c0,0,35.71,2,35.71-27.75H164.87s.61,11.22-16.73,11.22c0,0-18.36,1.23-18.36-18.15h54.07S189.76,73.27,147.53,73.27Zm16.32,31.37H129.57s2.25-16.09,18.37-16.09S163.85,104.64,163.85,104.64Z"/><rect x="125.08" y="52.86" width="43.05" height="12.85"/></g></svg>