<svg xmlns="http://www.w3.org/2000/svg" viewBox="0 0 200 200"><defs><style>.cls-1{fill-rule:evenodd;}</style></defs><g id="Capa_2" data-name="Capa 2"><path class="cls-1" d="M100,172.67A72.67,72.67,0,1,1,172.77,100,72.81,72.81,0,0,1,100,172.67M161.37,110a91.29,91.29,0,0,0-38.72-2.65,267.78,267.78,0,0,1,12.08,44.25A62.19,62.19,0,0,0,161.37,110m-37.09,47.28A259,259,0,0,0,111,110.16l-.41.14C75.55,122.5,63,146.78,61.85,149.06a62.16,62.16,0,0,0,62.43,8.17M53.83,141.6c1.4-2.41,18.46-30.62,50.52-41,.81-.27,1.62-.51,2.44-.74-1.56-3.53-3.26-7.06-5-10.54-31,9.28-61.15,8.89-63.87,8.84,0,.63,0,1.26,0,1.9a61.77,61.77,0,0,0,16,41.5M39.16,87.38a231.87,231.87,0,0,0,57.46-7.56,400.33,400.33,0,0,0-23-35.9A62.31,62.31,0,0,0,39.16,87.38M85.43,39.75a331.46,331.46,0,0,1,23.2,36.34c22.1-8.28,31.45-20.83,32.57-22.42A62.2,62.2,0,0,0,85.43,39.75m62.68,21.09C146.8,62.61,136.38,76,113.4,85.32c1.45,3,2.84,6,4.13,9,.46,1.07.9,2.14,1.34,3.2,20.68-2.6,41.23,1.57,43.28,2a61.76,61.76,0,0,0-14-38.67"/></g></svg>