<svg xmlns="http://www.w3.org/2000/svg" viewBox="0 0 200 200"><g id="Capa_7" data-name="Capa 7"><polygon points="24.66 68.18 24.66 142.67 69.44 105.42 24.66 68.18"/><path d="M163.44,45H36.55a11.93,11.93,0,0,0-11.71,9.87L84,104.1l9.86,8.21a9.92,9.92,0,0,0,12.19,0l10.37-8.62,58.7-48.82A11.94,11.94,0,0,0,163.44,45Z"/><polygon points="175.34 142.67 175.34 68.18 130.55 105.42 175.34 142.67"/><path d="M114.11,119.09l-8,6.67a9.92,9.92,0,0,1-12.19,0l-10.33-8.6-6-5L29.14,152.38A11.84,11.84,0,0,0,36.55,155H163.44a11.86,11.86,0,0,0,7.42-2.62l-48.39-40.24Z"/></g></svg>