<svg xmlns="http://www.w3.org/2000/svg" viewBox="0 0 200 200"><g id="Capa_3" data-name="Capa 3"><path d="M100,39.49c19.71,0,22,.07,29.83.43,7.19.32,11.1,1.53,13.7,2.54a24.42,24.42,0,0,1,14,14c1,2.6,2.21,6.51,2.54,13.7.36,7.79.43,10.12.43,29.83s-.07,22-.43,29.83c-.33,7.19-1.52,11.1-2.54,13.7a24.42,24.42,0,0,1-14,14c-2.6,1-6.51,2.22-13.7,2.54-7.78.36-10.12.43-29.83.43s-22-.07-29.83-.43c-7.19-.32-11.1-1.52-13.7-2.54a24.42,24.42,0,0,1-14-14c-1-2.6-2.21-6.51-2.54-13.7-.36-7.78-.43-10.12-.43-29.83s.07-22,.43-29.83c.33-7.19,1.52-11.1,2.54-13.7a24.42,24.42,0,0,1,14-14c2.6-1,6.51-2.22,13.7-2.54,7.79-.36,10.12-.43,29.83-.43m0-13.3c-20,0-22.56.08-30.43.44a54.31,54.31,0,0,0-17.92,3.43A37.75,37.75,0,0,0,30.06,51.65a54.31,54.31,0,0,0-3.43,17.92c-.36,7.87-.45,10.38-.45,30.43s.09,22.56.45,30.43a54.31,54.31,0,0,0,3.43,17.92,37.75,37.75,0,0,0,21.59,21.59,54.31,54.31,0,0,0,17.92,3.43c7.87.36,10.38.44,30.43.44s22.56-.08,30.43-.44a54.37,54.37,0,0,0,17.92-3.43,37.75,37.75,0,0,0,21.59-21.59,54.31,54.31,0,0,0,3.43-17.92c.36-7.87.45-10.38.45-30.43s-.09-22.56-.45-30.43a54.31,54.31,0,0,0-3.43-17.92,37.75,37.75,0,0,0-21.59-21.59,54.37,54.37,0,0,0-17.92-3.43c-7.87-.36-10.38-.44-30.43-.44"/><path d="M100,62.1A37.91,37.91,0,1,0,137.9,100,37.9,37.9,0,0,0,100,62.1m0,62.5A24.6,24.6,0,1,1,124.6,100,24.6,24.6,0,0,1,100,124.6"/><path d="M148.26,60.6a8.86,8.86,0,1,1-8.86-8.86,8.86,8.86,0,0,1,8.86,8.86"/></g></svg>